<svg width="92" height="92" viewBox="0 0 92 92" fill="none" xmlns="http://www.w3.org/2000/svg">
<path d="M40.3499 16.1315C23.4959 19.848 12.8458 36.5237 16.5623 53.3777L17.9081 59.481L24.0115 58.1352C27.3823 57.3919 30.7174 59.5219 31.4607 62.8927L35.4983 81.2028C36.2416 84.5737 34.1115 87.9088 30.7407 88.6521L24.6374 89.9979C21.2666 90.7412 17.9314 88.6112 17.1881 85.2404L10.4589 54.7235C5.99914 34.4987 18.7792 14.4879 39.004 10.0282C59.2288 5.56842 79.2396 18.3485 83.6994 38.5733L90.4286 69.0902C91.1719 72.461 89.0419 75.7961 85.6711 76.5394L79.5677 77.8853C76.1969 78.6286 72.8618 76.4986 72.1185 73.1277L68.081 54.8176C67.3377 51.4468 69.4677 48.1117 72.8385 47.3684L78.9419 46.0225L77.596 39.9192C73.8796 23.0652 57.2039 12.4151 40.3499 16.1315Z" fill="#ECEBFA"/>
<path fill-rule="evenodd" clip-rule="evenodd" d="M22.5 48C22.5 34.469 33.469 23.5 47 23.5C60.531 23.5 71.5 34.469 71.5 48C71.5 61.531 60.531 72.5 47 72.5C41.6348 72.5 36.6771 70.7775 32.6429 67.8549C32.0573 67.4307 31.8886 66.4355 32.6371 65.687L38.9382 59.3859C43.7364 62.9832 50.5734 62.6 54.9372 58.2362L59.8869 53.2864C60.2151 52.9582 60.3995 52.5131 60.3995 52.049C60.3995 51.5849 60.2151 51.1397 59.8869 50.8116L57.4108 48.3354L62.8687 42.8662C63.5514 42.182 63.5503 41.074 62.8662 40.3913C62.182 39.7086 61.074 39.7097 60.3913 40.3938L54.9359 45.8605L49.987 40.9116L55.4479 35.447C56.131 34.7634 56.1307 33.6553 55.447 32.9721C54.7634 32.289 53.6553 32.2893 52.9721 32.973L47.5121 38.4368L45.0377 35.9623C44.3543 35.2789 43.2462 35.2789 42.5628 35.9623L37.6131 40.9121C33.2493 45.2758 32.866 52.1128 36.4634 56.911L30.1622 63.2121C28.1331 65.2413 27.9939 68.8088 30.5895 70.6893C35.201 74.03 40.873 76 47 76C62.464 76 75 63.464 75 48C75 32.536 62.464 20 47 20C31.536 20 19 32.536 19 48C19 48.9665 19.7835 49.75 20.75 49.75C21.7165 49.75 22.5 48.9665 22.5 48Z" fill="#ECEBFA"/>
</svg>
