<svg width="265" height="92" viewBox="0 0 265 92" fill="none" xmlns="http://www.w3.org/2000/svg">
<path d="M40.3499 16.1315C23.4959 19.848 12.8458 36.5237 16.5623 53.3777L17.9081 59.481L24.0115 58.1352C27.3823 57.3919 30.7174 59.5219 31.4607 62.8927L35.4983 81.2028C36.2416 84.5737 34.1115 87.9088 30.7407 88.6521L24.6374 89.9979C21.2666 90.7412 17.9314 88.6112 17.1881 85.2404L10.4589 54.7235C5.99913 34.4987 18.7792 14.4879 39.004 10.0282C59.2288 5.56842 79.2396 18.3485 83.6994 38.5733L90.4286 69.0902C91.1719 72.461 89.0419 75.7961 85.6711 76.5394L79.5677 77.8853C76.1969 78.6286 72.8618 76.4986 72.1185 73.1277L68.081 54.8176C67.3377 51.4468 69.4677 48.1117 72.8385 47.3684L78.9419 46.0225L77.596 39.9192C73.8796 23.0652 57.2039 12.4151 40.3499 16.1315Z" fill="#ECEBFA"/>
<path fill-rule="evenodd" clip-rule="evenodd" d="M22.5 48C22.5 34.469 33.469 23.5 47 23.5C60.531 23.5 71.5 34.469 71.5 48C71.5 61.531 60.531 72.5 47 72.5C41.6348 72.5 36.6771 70.7775 32.6429 67.8549C32.0573 67.4307 31.8886 66.4355 32.6371 65.687L38.9382 59.3859C43.7364 62.9832 50.5734 62.6 54.9372 58.2362L59.8869 53.2864C60.2151 52.9582 60.3995 52.5131 60.3995 52.049C60.3995 51.5849 60.2151 51.1397 59.8869 50.8116L57.4108 48.3354L62.8687 42.8662C63.5514 42.182 63.5503 41.074 62.8662 40.3913C62.182 39.7086 61.074 39.7097 60.3913 40.3938L54.9359 45.8605L49.987 40.9116L55.4479 35.447C56.131 34.7634 56.1307 33.6553 55.447 32.9721C54.7634 32.289 53.6553 32.2893 52.9721 32.973L47.5121 38.4368L45.0377 35.9623C44.3543 35.2789 43.2462 35.2789 42.5628 35.9623L37.6131 40.9121C33.2493 45.2758 32.866 52.1128 36.4634 56.911L30.1622 63.2121C28.1331 65.2413 27.9939 68.8088 30.5895 70.6893C35.201 74.03 40.873 76 47 76C62.464 76 75 63.464 75 48C75 32.536 62.464 20 47 20C31.536 20 19 32.536 19 48C19 48.9665 19.7835 49.75 20.75 49.75C21.7165 49.75 22.5 48.9665 22.5 48Z" fill="#ECEBFA"/>
<path d="M119.566 31.7672V52.3592C119.566 55.5272 119.182 58.0712 118.414 59.9912C117.646 61.9112 116.414 63.3192 114.718 64.2152C113.022 65.0792 110.75 65.5112 107.902 65.5112C104.99 65.5112 102.654 65.0792 100.894 64.2152C99.1664 63.3192 97.9184 61.9112 97.1504 59.9912C96.3824 58.0712 95.9984 55.5272 95.9984 52.3592V31.7672H99.1184V52.3592C99.1184 54.9192 99.3904 56.9512 99.9344 58.4552C100.51 59.9592 101.422 61.0472 102.67 61.7192C103.95 62.3592 105.646 62.6792 107.758 62.6792C109.87 62.6792 111.55 62.3592 112.798 61.7192C114.078 61.0472 114.99 59.9592 115.534 58.4552C116.11 56.9512 116.398 54.9192 116.398 52.3592V31.7672H119.566ZM141.263 41.0312C145.455 41.0312 147.551 43.1592 147.551 47.4152V64.8872H144.527V48.2312C144.527 46.5672 144.207 45.3992 143.567 44.7272C142.927 44.0232 141.903 43.6712 140.495 43.6712C138.927 43.6712 137.391 44.0392 135.887 44.7752C134.383 45.5112 132.591 46.5512 130.511 47.8952L130.367 45.6392C132.255 44.1672 134.095 43.0312 135.887 42.2312C137.711 41.4312 139.503 41.0312 141.263 41.0312ZM130.319 41.6072L130.559 46.0232L130.799 46.7432V64.8872H127.775V41.6072H130.319ZM158.646 41.6072V64.8872H155.67V41.6072H158.646ZM157.878 31.8152C158.55 31.8152 158.886 32.1512 158.886 32.8232V35.6552C158.886 36.3272 158.55 36.6632 157.878 36.6632H156.438C155.766 36.6632 155.43 36.3272 155.43 35.6552V32.8232C155.43 32.1512 155.766 31.8152 156.438 31.8152H157.878ZM176.66 41.0312C177.3 41.0312 178.036 41.0632 178.868 41.1272C179.7 41.1912 180.548 41.3032 181.412 41.4632C182.276 41.5912 183.076 41.7832 183.812 42.0392L183.38 44.0552C182.388 43.9272 181.3 43.8312 180.116 43.7672C178.932 43.7032 177.94 43.6712 177.14 43.6712C175.124 43.6712 173.508 43.9592 172.292 44.5352C171.108 45.0792 170.244 46.0552 169.7 47.4632C169.188 48.8392 168.932 50.7592 168.932 53.2232C168.932 55.6872 169.188 57.6232 169.7 59.0312C170.244 60.4392 171.108 61.4312 172.292 62.0072C173.508 62.5512 175.124 62.8232 177.14 62.8232C177.62 62.8232 178.244 62.8072 179.012 62.7752C179.78 62.7432 180.596 62.6952 181.46 62.6312C182.324 62.5672 183.14 62.4712 183.908 62.3432L184.292 64.4072C183.14 64.7592 181.892 65.0152 180.548 65.1752C179.236 65.3672 177.924 65.4632 176.612 65.4632C173.988 65.4632 171.876 65.0632 170.276 64.2632C168.676 63.4632 167.508 62.1832 166.772 60.4232C166.068 58.6312 165.716 56.2312 165.716 53.2232C165.716 50.2472 166.068 47.8632 166.772 46.0712C167.508 44.2792 168.676 42.9992 170.276 42.2312C171.876 41.4312 174.004 41.0312 176.66 41.0312ZM199.39 41.0312C201.982 41.0312 204.062 41.4312 205.63 42.2312C207.198 43.0312 208.318 44.3272 208.99 46.1192C209.694 47.9112 210.046 50.2952 210.046 53.2712C210.046 56.2472 209.694 58.6312 208.99 60.4232C208.318 62.2152 207.198 63.5112 205.63 64.3112C204.062 65.1112 201.982 65.5112 199.39 65.5112C196.798 65.5112 194.718 65.1112 193.15 64.3112C191.582 63.5112 190.446 62.2152 189.742 60.4232C189.038 58.6312 188.686 56.2472 188.686 53.2712C188.686 50.2952 189.038 47.9112 189.742 46.1192C190.446 44.3272 191.582 43.0312 193.15 42.2312C194.718 41.4312 196.798 41.0312 199.39 41.0312ZM199.39 43.6712C197.502 43.6712 196.014 43.9592 194.926 44.5352C193.838 45.1112 193.054 46.1032 192.574 47.5112C192.126 48.8872 191.902 50.8072 191.902 53.2712C191.902 55.7032 192.126 57.6232 192.574 59.0312C193.054 60.4392 193.838 61.4312 194.926 62.0072C196.014 62.5832 197.502 62.8712 199.39 62.8712C201.246 62.8712 202.718 62.5832 203.806 62.0072C204.926 61.4312 205.71 60.4392 206.158 59.0312C206.638 57.6232 206.878 55.7032 206.878 53.2712C206.878 50.8072 206.638 48.8872 206.158 47.5112C205.71 46.1032 204.926 45.1112 203.806 44.5352C202.718 43.9592 201.246 43.6712 199.39 43.6712ZM219.33 41.6072L219.714 46.0232L220.002 46.7432V64.8872H216.978V41.6072H219.33ZM230.946 41.0312L230.562 43.9112H229.41C227.906 43.9112 226.418 44.2472 224.946 44.9192C223.506 45.5592 221.762 46.4872 219.714 47.7032L219.474 45.6872C221.266 44.2472 223.042 43.1112 224.802 42.2792C226.562 41.4472 228.274 41.0312 229.938 41.0312H230.946ZM242.89 41.0312C244.426 41.0312 245.962 41.2392 247.498 41.6552C249.034 42.0712 250.538 42.6792 252.01 43.4792L251.866 45.4952C250.202 44.9512 248.73 44.5192 247.45 44.1992C246.202 43.8792 244.89 43.7192 243.514 43.7192C242.042 43.7192 240.842 44.0072 239.914 44.5832C239.018 45.1272 238.362 46.0872 237.946 47.4632C237.53 48.8392 237.322 50.7432 237.322 53.1752C237.322 55.6072 237.53 57.5272 237.946 58.9352C238.362 60.3112 239.002 61.3032 239.866 61.9112C240.762 62.4872 241.914 62.7752 243.322 62.7752C244.314 62.7752 245.21 62.6472 246.01 62.3912C246.842 62.1032 247.722 61.6552 248.65 61.0472C249.578 60.4392 250.65 59.6872 251.866 58.7912L252.106 61.0952C250.666 62.3752 249.146 63.4312 247.546 64.2632C245.946 65.0632 244.25 65.4632 242.458 65.4632C239.514 65.4632 237.402 64.4712 236.122 62.4872C234.842 60.4712 234.202 57.3832 234.202 53.2232C234.202 50.2152 234.506 47.8312 235.114 46.0712C235.754 44.2792 236.698 42.9992 237.946 42.2312C239.226 41.4312 240.874 41.0312 242.89 41.0312ZM254.506 31.2872V64.8872H252.154L251.77 60.8072L251.482 60.5192V44.4392L251.722 43.7192C251.594 42.8232 251.514 41.9912 251.482 41.2232C251.482 40.4552 251.482 39.6232 251.482 38.7272V31.2872H254.506Z" fill="#ECEBFA"/>
</svg>
