<svg width="265" height="93" viewBox="0 0 265 93" fill="none" xmlns="http://www.w3.org/2000/svg">
<path d="M40.3499 16.906C23.4959 20.6224 12.8458 37.2981 16.5623 54.1521L17.9081 60.2555L24.0115 58.9096C27.3823 58.1663 30.7174 60.2963 31.4607 63.6671L35.4983 81.9773C36.2416 85.3481 34.1115 88.6832 30.7407 89.4265L24.6374 90.7723C21.2666 91.5156 17.9314 89.3856 17.1881 86.0148L10.4589 55.4979C5.99914 35.2731 18.7792 15.2623 39.004 10.8026C59.2288 6.34283 79.2396 19.1229 83.6994 39.3477L90.4286 69.8646C91.1719 73.2354 89.0419 76.5705 85.6711 77.3138L79.5677 78.6597C76.1969 79.403 72.8618 77.273 72.1185 73.9022L68.081 55.592C67.3377 52.2212 69.4677 48.8861 72.8385 48.1428L78.9419 46.797L77.596 40.6936C73.8796 23.8396 57.2039 13.1895 40.3499 16.906Z" fill="#06050A"/>
<path fill-rule="evenodd" clip-rule="evenodd" d="M22.5 48.7744C22.5 35.2434 33.469 24.2744 47 24.2744C60.531 24.2744 71.5 35.2434 71.5 48.7744C71.5 62.3054 60.531 73.2744 47 73.2744C41.6348 73.2744 36.6771 71.5519 32.6429 68.6293C32.0573 68.2051 31.8886 67.21 32.6371 66.4614L38.9382 60.1603C43.7364 63.7576 50.5734 63.3744 54.9372 59.0106L59.8869 54.0608C60.2151 53.7327 60.3995 53.2875 60.3995 52.8234C60.3995 52.3593 60.2151 51.9142 59.8869 51.586L57.4108 49.1098L62.8687 43.6406C63.5514 42.9564 63.5503 41.8484 62.8662 41.1657C62.182 40.483 61.074 40.4841 60.3913 41.1683L54.9359 46.6349L49.987 41.686L55.4479 36.2214C56.131 35.5378 56.1307 34.4297 55.447 33.7465C54.7634 33.0634 53.6553 33.0638 52.9721 33.7474L47.5121 39.2112L45.0377 36.7367C44.3543 36.0533 43.2462 36.0533 42.5628 36.7367L37.6131 41.6865C33.2493 46.0503 32.866 52.8872 36.4634 57.6854L30.1622 63.9865C28.1331 66.0157 27.9939 69.5832 30.5895 71.4637C35.201 74.8044 40.873 76.7744 47 76.7744C62.464 76.7744 75 64.2384 75 48.7744C75 33.3104 62.464 20.7744 47 20.7744C31.536 20.7744 19 33.3104 19 48.7744C19 49.7409 19.7835 50.5244 20.75 50.5244C21.7165 50.5244 22.5 49.7409 22.5 48.7744Z" fill="#06050A"/>
<path d="M119.566 32.5416V53.1336C119.566 56.3016 119.182 58.8456 118.414 60.7656C117.646 62.6856 116.414 64.0936 114.718 64.9896C113.022 65.8536 110.75 66.2856 107.902 66.2856C104.99 66.2856 102.654 65.8536 100.894 64.9896C99.1664 64.0936 97.9184 62.6856 97.1504 60.7656C96.3824 58.8456 95.9984 56.3016 95.9984 53.1336V32.5416H99.1184V53.1336C99.1184 55.6936 99.3904 57.7256 99.9344 59.2296C100.51 60.7336 101.422 61.8216 102.67 62.4936C103.95 63.1336 105.646 63.4536 107.758 63.4536C109.87 63.4536 111.55 63.1336 112.798 62.4936C114.078 61.8216 114.99 60.7336 115.534 59.2296C116.11 57.7256 116.398 55.6936 116.398 53.1336V32.5416H119.566ZM141.263 41.8056C145.455 41.8056 147.551 43.9336 147.551 48.1896V65.6616H144.527V49.0056C144.527 47.3416 144.207 46.1736 143.567 45.5016C142.927 44.7976 141.903 44.4456 140.495 44.4456C138.927 44.4456 137.391 44.8136 135.887 45.5496C134.383 46.2856 132.591 47.3256 130.511 48.6696L130.367 46.4136C132.255 44.9416 134.095 43.8056 135.887 43.0056C137.711 42.2056 139.503 41.8056 141.263 41.8056ZM130.319 42.3816L130.559 46.7976L130.799 47.5176V65.6616H127.775V42.3816H130.319ZM158.646 42.3816V65.6616H155.67V42.3816H158.646ZM157.878 32.5896C158.55 32.5896 158.886 32.9256 158.886 33.5976V36.4296C158.886 37.1016 158.55 37.4376 157.878 37.4376H156.438C155.766 37.4376 155.43 37.1016 155.43 36.4296V33.5976C155.43 32.9256 155.766 32.5896 156.438 32.5896H157.878ZM176.66 41.8056C177.3 41.8056 178.036 41.8376 178.868 41.9016C179.7 41.9656 180.548 42.0776 181.412 42.2376C182.276 42.3656 183.076 42.5576 183.812 42.8136L183.38 44.8296C182.388 44.7016 181.3 44.6056 180.116 44.5416C178.932 44.4776 177.94 44.4456 177.14 44.4456C175.124 44.4456 173.508 44.7336 172.292 45.3096C171.108 45.8536 170.244 46.8296 169.7 48.2376C169.188 49.6136 168.932 51.5336 168.932 53.9976C168.932 56.4616 169.188 58.3976 169.7 59.8056C170.244 61.2136 171.108 62.2056 172.292 62.7816C173.508 63.3256 175.124 63.5976 177.14 63.5976C177.62 63.5976 178.244 63.5816 179.012 63.5496C179.78 63.5176 180.596 63.4696 181.46 63.4056C182.324 63.3416 183.14 63.2456 183.908 63.1176L184.292 65.1816C183.14 65.5336 181.892 65.7896 180.548 65.9496C179.236 66.1416 177.924 66.2376 176.612 66.2376C173.988 66.2376 171.876 65.8376 170.276 65.0376C168.676 64.2376 167.508 62.9576 166.772 61.1976C166.068 59.4056 165.716 57.0056 165.716 53.9976C165.716 51.0216 166.068 48.6376 166.772 46.8456C167.508 45.0536 168.676 43.7736 170.276 43.0056C171.876 42.2056 174.004 41.8056 176.66 41.8056ZM199.39 41.8056C201.982 41.8056 204.062 42.2056 205.63 43.0056C207.198 43.8056 208.318 45.1016 208.99 46.8936C209.694 48.6856 210.046 51.0696 210.046 54.0456C210.046 57.0216 209.694 59.4056 208.99 61.1976C208.318 62.9896 207.198 64.2856 205.63 65.0856C204.062 65.8856 201.982 66.2856 199.39 66.2856C196.798 66.2856 194.718 65.8856 193.15 65.0856C191.582 64.2856 190.446 62.9896 189.742 61.1976C189.038 59.4056 188.686 57.0216 188.686 54.0456C188.686 51.0696 189.038 48.6856 189.742 46.8936C190.446 45.1016 191.582 43.8056 193.15 43.0056C194.718 42.2056 196.798 41.8056 199.39 41.8056ZM199.39 44.4456C197.502 44.4456 196.014 44.7336 194.926 45.3096C193.838 45.8856 193.054 46.8776 192.574 48.2856C192.126 49.6616 191.902 51.5816 191.902 54.0456C191.902 56.4776 192.126 58.3976 192.574 59.8056C193.054 61.2136 193.838 62.2056 194.926 62.7816C196.014 63.3576 197.502 63.6456 199.39 63.6456C201.246 63.6456 202.718 63.3576 203.806 62.7816C204.926 62.2056 205.71 61.2136 206.158 59.8056C206.638 58.3976 206.878 56.4776 206.878 54.0456C206.878 51.5816 206.638 49.6616 206.158 48.2856C205.71 46.8776 204.926 45.8856 203.806 45.3096C202.718 44.7336 201.246 44.4456 199.39 44.4456ZM219.33 42.3816L219.714 46.7976L220.002 47.5176V65.6616H216.978V42.3816H219.33ZM230.946 41.8056L230.562 44.6856H229.41C227.906 44.6856 226.418 45.0216 224.946 45.6936C223.506 46.3336 221.762 47.2616 219.714 48.4776L219.474 46.4616C221.266 45.0216 223.042 43.8856 224.802 43.0536C226.562 42.2216 228.274 41.8056 229.938 41.8056H230.946ZM242.89 41.8056C244.426 41.8056 245.962 42.0136 247.498 42.4296C249.034 42.8456 250.538 43.4536 252.01 44.2536L251.866 46.2696C250.202 45.7256 248.73 45.2936 247.45 44.9736C246.202 44.6536 244.89 44.4936 243.514 44.4936C242.042 44.4936 240.842 44.7816 239.914 45.3576C239.018 45.9016 238.362 46.8616 237.946 48.2376C237.53 49.6136 237.322 51.5176 237.322 53.9496C237.322 56.3816 237.53 58.3016 237.946 59.7096C238.362 61.0856 239.002 62.0776 239.866 62.6856C240.762 63.2616 241.914 63.5496 243.322 63.5496C244.314 63.5496 245.21 63.4216 246.01 63.1656C246.842 62.8776 247.722 62.4296 248.65 61.8216C249.578 61.2136 250.65 60.4616 251.866 59.5656L252.106 61.8696C250.666 63.1496 249.146 64.2056 247.546 65.0376C245.946 65.8376 244.25 66.2376 242.458 66.2376C239.514 66.2376 237.402 65.2456 236.122 63.2616C234.842 61.2456 234.202 58.1576 234.202 53.9976C234.202 50.9896 234.506 48.6056 235.114 46.8456C235.754 45.0536 236.698 43.7736 237.946 43.0056C239.226 42.2056 240.874 41.8056 242.89 41.8056ZM254.506 32.0616V65.6616H252.154L251.77 61.5816L251.482 61.2936V45.2136L251.722 44.4936C251.594 43.5976 251.514 42.7656 251.482 41.9976C251.482 41.2296 251.482 40.3976 251.482 39.5016V32.0616H254.506Z" fill="#06050A"/>
</svg>
